# xmcd
#
# Track frame offsets: 
#        150
#        14783
#        32374
#        48547
#        63150
#        76535
#        93353
#        109285
#        126486
#        137931
#        149435
#
# Disc length: 2338 seconds
#
# Revision: 0
# Processed by: cddbd v1.5.2PL0 Copyright (c) Steve Scherf et al.
# Submitted via: ExactAudioCopy v0.95b4
#
DISCID=9809200b
DTITLE=The Fairlanes - Hit The Road
DYEAR=1987
DGENRE=Blues
TTITLE0=Test Of Time
TTITLE1=Chain Of Fools
TTITLE2=I Need Your Love
TTITLE3=Road Runner
TTITLE4=Build Me A Man
TTITLE5=The Fairlane Shuffle
TTITLE6=Step Inside These Blues
TTITLE7=I Gotta Feel Your Touch
TTITLE8=Marilyn
TTITLE9=Hold Me Back
TTITLE10=Hit The Road
EXTD=
EXTT0=
EXTT1=
EXTT2=
EXTT3=
EXTT4=
EXTT5=
EXTT6=
EXTT7=
EXTT8=
EXTT9=
EXTT10=
PLAYORDER=
